<svg id="Layer_2" data-name="Layer 2" xmlns="http://www.w3.org/2000/svg" viewBox="0 0 539.47 154.35"><defs><style>.cls-1{fill:#fff;}.cls-2,.cls-3{fill:#97f1fb;}.cls-3{stroke:#97f1fb;}.cls-3,.cls-4,.cls-5{stroke-miterlimit:10;}.cls-4{fill:#089eae;stroke:#089eae;}.cls-5{fill:#0bdbf2;stroke:#0bdbf2;}</style></defs><title>logo-contraste</title><path class="cls-1" d="M227.67,394.39q-20.47,0-35.09-14.89A49.16,49.16,0,0,1,178,343.78V265.72a8.5,8.5,0,0,1,2.86-6.52,9.69,9.69,0,0,1,6.79-2.63,9.51,9.51,0,0,1,6.89,2.91,9.25,9.25,0,0,1,3,6.79v38.44q14.78-11.5,30.34-11.5A47.59,47.59,0,0,1,263,308a51,51,0,0,1,0,71.45A47.63,47.63,0,0,1,227.67,394.39ZM228,312.51a29.1,29.1,0,0,0-21.57,9.13,32,32,0,0,0,0,44.33,30.3,30.3,0,0,0,43.33,0,31.94,31.94,0,0,0,0-44.33A29.31,29.31,0,0,0,228,312.51Z" transform="translate(-27.39 -241.51)"/><path class="cls-1" d="M374.27,394.39a8.57,8.57,0,0,1-6.83-3.22,10.79,10.79,0,0,1-2.73-7.13V343.58a30.15,30.15,0,0,0-9-22,30.54,30.54,0,0,0-43.47,0,30.14,30.14,0,0,0-9,22L302.92,385a8.8,8.8,0,0,1-2.83,6.74,9.49,9.49,0,0,1-6.72,2.64,8.62,8.62,0,0,1-6.63-3,10,10,0,0,1-2.73-6.91V265.72a8.53,8.53,0,0,1,2.83-6.52,9.52,9.52,0,0,1,6.72-2.63,10,10,0,0,1,9.75,9.71v38.44q14.81-11.5,30.41-11.5A47.77,47.77,0,0,1,369,308a49,49,0,0,1,14.62,35.67v40.55a10.6,10.6,0,0,1-2.63,7A8.4,8.4,0,0,1,374.27,394.39Z" transform="translate(-27.39 -241.51)"/><path class="cls-1" d="M439,394.39a49.91,49.91,0,0,1-49.71-49.91q0,0.2-.2-38a9.77,9.77,0,0,1,9.65-9.75,9.6,9.6,0,0,1,6.66,2.53,8.5,8.5,0,0,1,2.8,6.61v38.7a30.6,30.6,0,0,0,61.21,0V306.45a9.91,9.91,0,0,1,9.75-9.72,10.08,10.08,0,0,1,6.86,2.53,8.41,8.41,0,0,1,2.88,6.63v38.6A49.91,49.91,0,0,1,439,394.39Z" transform="translate(-27.39 -241.51)"/><path class="cls-2" d="M557.69,395q-8.19.19-12.08,0.2A47.57,47.57,0,0,1,511.1,381q-14.43-14.14-14.42-35V281.13a8.55,8.55,0,0,1,2.83-6.53A9.28,9.28,0,0,1,506,272q7.6,0,9.36,9.36,0.59,3.9.2,13.84h41.72a7.7,7.7,0,0,1,6.43,3,10.74,10.74,0,0,1,2.33,6.72,9.53,9.53,0,0,1-2.95,7,9.25,9.25,0,0,1-6.68,2.93H515.2v30.22a29.65,29.65,0,0,0,9,21.83,28.75,28.75,0,0,0,21.52,8.77h11.55a9.11,9.11,0,0,1,6.75,2.9,9.35,9.35,0,0,1,2.84,6.75,9.13,9.13,0,0,1-2.73,6.76A9.61,9.61,0,0,1,557.69,395Z" transform="translate(-27.39 -241.51)"/><polygon class="cls-2" points="485.77 22.04 471.93 22.04 468.6 0 489.1 0 485.77 22.04"/><rect class="cls-2" x="63.32" y="0.01" width="16.65" height="71.26"/><path class="cls-3" d="M158.31,358l-21.4-11a45.2,45.2,0,0,0,4.43-13.36l23.76,3.92A69.19,69.19,0,0,1,158.31,358Z" transform="translate(-27.39 -241.51)"/><path class="cls-4" d="M141.71,321.72a44.46,44.46,0,0,0-3.84-14.08l21.89-10a68.6,68.6,0,0,1,5.92,21.69Z" transform="translate(-27.39 -241.51)"/><path class="cls-5" d="M131.09,297A44.45,44.45,0,0,0,119,287.13l11.76-21a68.47,68.47,0,0,1,18.63,15.27Z" transform="translate(-27.39 -241.51)"/><path class="cls-3" d="M97.08,395.37A69,69,0,0,1,62.44,266.54c0.79-.46,1.58-0.89,2.38-1.31l11.27,21.28q-0.81.43-1.61,0.89a45,45,0,0,0,45,77.88,45.22,45.22,0,0,0,10.22-8.06l17.5,16.55a69.38,69.38,0,0,1-15.67,12.36A68.67,68.67,0,0,1,97.08,395.37Z" transform="translate(-27.39 -241.51)"/></svg>